<?xml version="1.0" encoding="UTF-8"?>
<svg id="_レイヤー_1" data-name="レイヤー_1" xmlns="http://www.w3.org/2000/svg" version="1.1" viewBox="0 0 1200 1028.1">
  <!-- Generator: Adobe Illustrator 29.2.1, SVG Export Plug-In . SVG Version: 2.1.0 Build 116)  -->
  <defs>
    <style>
      .st0 {
        fill: #00a199;
      }

      .st1 {
        fill: #aacc03;
      }

      .st2 {
        fill: #69bc82;
      }
    </style>
  </defs>
  <path class="st1" d="M1185.4,588.8l-52.5-341.2-9.4-61.1-43.8,43.6L428.9,877.2l-22.4,22.2,22.3,22.3,68,68c24.7,24.7,57.7,38.3,93,38.3s68.4-13.6,93-38.4l413.3-409.9,36,36,67.9,68-14.6-95ZM1096.2,524.4l-441.2,437.6c-17.2,17.3-40.4,26.8-65.2,26.8s-47.9-9.5-65.2-26.8l-62.4-62.4,634.2-630.7,46.5,302.2-46.7-46.7Z"/>
  <path class="st2" d="M1069,161l-34.9-34.9c-18.6-18.6-43.6-29.3-70.3-30.1h-2.5c0,0-.4,0-.4,0h-.4c-27.9,0-54,10.7-73.4,30.2l-134.8,134.8-222.6-222.6c-6.4-6.5-13.9-12.4-22.8-18.1C485.8,7,461.6,0,436.7,0s-68.2,13.6-92.9,38.3l-17.4,17.4-22.3,22.2,22.3,22.3,401.7,401.7,22.2,22.2,22.2-22.2,296.5-296.5,22.2-22.2-22.2-22.2ZM960.4,135.1h2.3c16.7.6,32.2,7.2,43.7,18.7l29.3,29.4-285.4,285.3L359.6,78l11.9-11.9c17.3-17.3,40.4-26.8,65.1-26.8s34.5,4.9,49.2,14.1c6.3,4,11.7,8.3,16.1,12.7l250.4,250.4,162.6-162.6c12-12.1,28.2-18.7,45.5-18.7Z"/>
  <g>
    <path class="st0" d="M710.4,517.5L324.7,131.8l-16-16-22.2-22.3-22.3,22.2L38.5,341.4C13.7,366.3,0,399.4,0,434.5s13.7,68.2,38.5,93l330.9,330.9,22.3,22.3,22.2-22.3,5.5-5.6,291-290.9,22.2-22.2-22.2-22.2ZM66.3,499.7c-17.4-17.4-27-40.5-27-65.2s9.6-47.9,27-65.3l220.2-220.1,390.6,390.6-285.4,285.3L66.3,499.7Z"/>
    <path class="st0" d="M306.9,278.7l-135.4,135.3,240.6,240.6,135.3-135.4-240.5-240.5ZM491.8,519.3l-79.7,79.8-185-185,79.8-79.8,184.9,184.9Z"/>
  </g>
</svg>